<svg width="292" height="49" viewBox="0 0 292 49" fill="none" xmlns="http://www.w3.org/2000/svg">
<path d="M0.318 40L14.31 3.642H24.062L38.054 40H29.521L26.924 32.845H11.077L8.48 40H0.318ZM13.356 26.485H24.645L21.412 17.528C21.2707 17.1393 21.094 16.68 20.882 16.15C20.7053 15.5847 20.511 14.9663 20.299 14.295C20.087 13.6237 19.875 12.97 19.663 12.334C19.4863 11.6627 19.3097 11.062 19.133 10.532H18.815C18.6383 11.2033 18.4087 11.9983 18.126 12.917C17.8433 13.8003 17.5607 14.666 17.278 15.514C16.9953 16.3267 16.7657 16.998 16.589 17.528L13.356 26.485ZM46.8864 40V10.267H35.2264V3.642H66.5494V10.267H54.8364V40H46.8864ZM87.6235 40.636C84.3022 40.636 81.4402 40.106 79.0375 39.046C76.6702 37.986 74.8505 36.396 73.5785 34.276C72.3065 32.1207 71.6705 29.453 71.6705 26.273V3.642H79.6205V26.061C79.6205 28.6757 80.3095 30.6897 81.6875 32.103C83.0655 33.481 85.0442 34.17 87.6235 34.17C90.2028 34.17 92.1815 33.481 93.5595 32.103C94.9728 30.6897 95.6795 28.6757 95.6795 26.061V3.642H103.629V26.273C103.629 29.453 102.993 32.1207 101.721 34.276C100.449 36.396 98.6122 37.986 96.2095 39.046C93.8422 40.106 90.9802 40.636 87.6235 40.636ZM111.529 40V3.642H119.426V33.269H137.764V40H111.529ZM157.509 40.636C153.728 40.636 150.495 39.9823 147.81 38.675C145.125 37.3323 143.075 35.2653 141.662 32.474C140.284 29.6827 139.595 26.1317 139.595 21.821C139.595 15.461 141.15 10.744 144.259 7.67C147.404 4.56067 151.82 3.006 157.509 3.006C160.618 3.006 163.41 3.536 165.883 4.596C168.356 5.656 170.3 7.246 171.713 9.366C173.162 11.486 173.886 14.1537 173.886 17.369H165.936C165.936 15.673 165.583 14.242 164.876 13.076C164.205 11.91 163.233 11.0267 161.961 10.426C160.724 9.79 159.276 9.472 157.615 9.472C155.354 9.472 153.481 9.91367 151.997 10.797C150.548 11.6803 149.471 12.9877 148.764 14.719C148.093 16.415 147.757 18.4997 147.757 20.973V22.616C147.757 25.16 148.11 27.2977 148.817 29.029C149.524 30.725 150.584 32.0147 151.997 32.898C153.446 33.746 155.301 34.17 157.562 34.17C159.329 34.17 160.866 33.8697 162.173 33.269C163.48 32.6683 164.487 31.785 165.194 30.619C165.901 29.453 166.254 28.022 166.254 26.326H173.886C173.886 29.5413 173.179 32.209 171.766 34.329C170.388 36.449 168.462 38.039 165.989 39.099C163.516 40.1237 160.689 40.636 157.509 40.636ZM197.068 40.636C193.217 40.636 189.895 39.947 187.104 38.569C184.313 37.191 182.175 35.1063 180.691 32.315C179.207 29.5237 178.465 26.0257 178.465 21.821C178.465 17.5457 179.207 14.03 180.691 11.274C182.175 8.48266 184.313 6.41566 187.104 5.073C189.895 3.695 193.217 3.006 197.068 3.006C200.99 3.006 204.329 3.695 207.085 5.073C209.876 6.41566 212.014 8.48266 213.498 11.274C214.982 14.03 215.724 17.5457 215.724 21.821C215.724 26.0257 214.982 29.5237 213.498 32.315C212.014 35.1063 209.876 37.191 207.085 38.569C204.329 39.947 200.99 40.636 197.068 40.636ZM197.068 34.17C198.799 34.17 200.319 33.9227 201.626 33.428C202.933 32.9333 204.029 32.1913 204.912 31.202C205.795 30.2127 206.467 29.0113 206.926 27.598C207.385 26.1493 207.615 24.5063 207.615 22.669V21.026C207.615 19.1533 207.385 17.4927 206.926 16.044C206.467 14.5953 205.795 13.394 204.912 12.44C204.029 11.4507 202.933 10.7087 201.626 10.214C200.319 9.71933 198.799 9.472 197.068 9.472C195.372 9.472 193.87 9.71933 192.563 10.214C191.256 10.7087 190.16 11.4507 189.277 12.44C188.394 13.394 187.722 14.5953 187.263 16.044C186.839 17.4927 186.627 19.1533 186.627 21.026V22.669C186.627 24.5063 186.839 26.1493 187.263 27.598C187.722 29.0113 188.394 30.2127 189.277 31.202C190.16 32.1913 191.256 32.9333 192.563 33.428C193.87 33.9227 195.372 34.17 197.068 34.17ZM262.248 40V3.642H291.292V10.108H270.198V18.217H288.854V24.63H270.198V33.481H291.61V40H262.248Z" fill="white"/>
<path d="M236.127 48.427C234.396 48.427 232.841 48.321 231.463 48.109C230.085 47.9323 228.919 47.579 227.965 47.049C227.011 46.5543 226.287 45.8123 225.792 44.823C225.298 43.8337 225.05 42.5617 225.05 41.007V30.142C225.05 29.3647 224.803 28.7463 224.308 28.287C223.849 27.8277 223.248 27.5097 222.506 27.333C221.764 27.121 221.005 27.015 220.227 27.015V22.404C221.005 22.404 221.747 22.3157 222.453 22.139C223.195 21.927 223.814 21.5913 224.308 21.132C224.803 20.6373 225.05 20.019 225.05 19.277V8.465C225.05 6.875 225.298 5.603 225.792 4.649C226.287 3.65966 227.011 2.9 227.965 2.37C228.955 1.84 230.138 1.48667 231.516 1.31C232.894 1.13333 234.431 1.045 236.127 1.045V5.073C235.456 5.073 234.749 5.16133 234.007 5.338C233.265 5.47933 232.629 5.77966 232.099 6.239C231.569 6.663 231.287 7.31667 231.251 8.2L230.827 18.8C230.792 20.5667 230.315 21.9623 229.396 22.987C228.513 23.9763 227.011 24.471 224.891 24.471V25.001C226.305 25.001 227.435 25.2307 228.283 25.69C229.131 26.114 229.75 26.75 230.138 27.598C230.562 28.446 230.792 29.453 230.827 30.619L231.251 41.219C231.287 42.1023 231.552 42.756 232.046 43.18C232.576 43.6393 233.212 43.9397 233.954 44.081C234.696 44.2577 235.421 44.346 236.127 44.346V48.427ZM245.804 0.991997C248.737 4.278 250.98 7.97033 252.535 12.069C254.125 16.1677 254.92 20.39 254.92 24.736C254.92 29.082 254.125 33.3043 252.535 37.403C250.98 41.4663 248.737 45.1233 245.804 48.374H241.14C242.518 46.2187 243.737 43.816 244.797 41.166C245.892 38.5513 246.74 35.8483 247.341 33.057C247.942 30.2303 248.242 27.4567 248.242 24.736C248.242 22.0153 247.942 19.2417 247.341 16.415C246.74 13.5883 245.892 10.85 244.797 8.2C243.737 5.55 242.518 3.14733 241.14 0.991997H245.804Z" fill="#986DFF"/>
</svg>
